<svg width="28" height="29" viewBox="0 0 28 29" fill="none" xmlns="http://www.w3.org/2000/svg">
<path d="M14.0063 7.81257C10.0313 7.81257 6.82505 11.0188 6.82505 14.9938C6.82505 18.9688 10.0313 22.1751 14.0063 22.1751C17.9813 22.1751 21.1875 18.9688 21.1875 14.9938C21.1875 11.0188 17.9813 7.81257 14.0063 7.81257ZM14.0063 19.6626C11.4375 19.6626 9.33754 17.5688 9.33754 14.9938C9.33754 12.4188 11.4313 10.3251 14.0063 10.3251C16.5813 10.3251 18.675 12.4188 18.675 14.9938C18.675 17.5688 16.575 19.6626 14.0063 19.6626ZM23.1563 7.51882C23.1563 8.45007 22.4063 9.19382 21.4813 9.19382C20.55 9.19382 19.8063 8.44382 19.8063 7.51882C19.8063 6.59382 20.5563 5.84382 21.4813 5.84382C22.4063 5.84382 23.1563 6.59382 23.1563 7.51882ZM27.9125 9.21882C27.8063 6.97507 27.2938 4.98757 25.65 3.35007C24.0125 1.71257 22.025 1.20007 19.7813 1.08757C17.4688 0.956323 10.5375 0.956323 8.22505 1.08757C5.98755 1.19382 4.00005 1.70632 2.3563 3.34382C0.712549 4.98132 0.206299 6.96882 0.0937988 9.21257C-0.0374512 11.5251 -0.0374512 18.4563 0.0937988 20.7688C0.200049 23.0126 0.712549 25.0001 2.3563 26.6376C4.00005 28.2751 5.9813 28.7876 8.22505 28.9001C10.5375 29.0313 17.4688 29.0313 19.7813 28.9001C22.025 28.7938 24.0125 28.2813 25.65 26.6376C27.2875 25.0001 27.8 23.0126 27.9125 20.7688C28.0438 18.4563 28.0438 11.5313 27.9125 9.21882ZM24.925 23.2501C24.4375 24.4751 23.4938 25.4188 22.2625 25.9126C20.4188 26.6438 16.0438 26.4751 14.0063 26.4751C11.9688 26.4751 7.58754 26.6376 5.75005 25.9126C4.52505 25.4251 3.5813 24.4813 3.08755 23.2501C2.3563 21.4063 2.52505 17.0313 2.52505 14.9938C2.52505 12.9563 2.36255 8.57507 3.08755 6.73757C3.57505 5.51257 4.5188 4.56882 5.75005 4.07507C7.59379 3.34382 11.9688 3.51257 14.0063 3.51257C16.0438 3.51257 20.425 3.35007 22.2625 4.07507C23.4875 4.56257 24.4313 5.50632 24.925 6.73757C25.6563 8.58132 25.4875 12.9563 25.4875 14.9938C25.4875 17.0313 25.6563 21.4126 24.925 23.2501Z" fill="#3C3A47"/>
</svg>
